<svg xmlns="http://www.w3.org/2000/svg" version="1.1" xmlns:xlink="http://www.w3.org/1999/xlink" xmlns:svgjs="http://svgjs.com/svgjs" width="1440" height="560" preserveAspectRatio="none" viewBox="0 0 1440 560"><g mask="url(&quot;#SvgjsMask1946&quot;)" fill="none"><rect width="1440" height="560" x="0" y="0" fill="rgba(0, 0, 0, 1)"></rect><use xlink:href="#SvgjsG1950" transform="translate(0, 0)" fill="rgba(234, 226, 98, 0.79)"></use><use xlink:href="#SvgjsG1950" transform="translate(0, 530)" fill="rgba(234, 226, 98, 0.79)"></use><use xlink:href="#SvgjsG1950" transform="translate(530, 0)" fill="rgba(234, 226, 98, 0.79)"></use><use xlink:href="#SvgjsG1950" transform="translate(530, 530)" fill="rgba(234, 226, 98, 0.79)"></use><use xlink:href="#SvgjsG1950" transform="translate(1060, 0)" fill="rgba(234, 226, 98, 0.79)"></use><use xlink:href="#SvgjsG1950" transform="translate(1060, 530)" fill="rgba(234, 226, 98, 0.79)"></use></g><defs><mask id="SvgjsMask1946"><rect width="1440" height="560" fill="#ffffff"></rect></mask><g id="SvgjsG1947"><path d="M15.233 9.431c0.295 0 0.569-0.239 0.61-0.532 0 0 0.056-0.411 0.056-0.899s-0.056-0.899-0.056-0.899c-0.041-0.292-0.315-0.531-0.61-0.53h-1.524c-0.295 0-0.602-0.188-0.681-0.418s-0.188-0.967 0.021-1.176l1.078-1.077c0.209-0.209 0.225-0.565 0.036-0.792l-1.268-1.268c-0.227-0.189-0.583-0.173-0.792 0.036l-1.078 1.077c-0.208 0.209-0.556 0.293-0.772 0.187s-0.822-0.552-0.821-0.847V0.767c0-0.295-0.239-0.569-0.531-0.61 0 0-0.411-0.057-0.9-0.056s-0.899 0.057-0.899 0.056c-0.293 0.04-0.532 0.315-0.532 0.61v1.524c0 0.295-0.188 0.601-0.418 0.681s-0.967 0.188-1.176-0.021l-1.078-1.078C3.689 1.665 3.333 1.649 3.107 1.837l-1.268 1.268c-0.189 0.227-0.173 0.583 0.036 0.792l1.077 1.078c0.209 0.209 0.293 0.556 0.187 0.772s-0.552 0.822-0.847 0.822H0.767c-0.295 0-0.569 0.239-0.61 0.531 0 0-0.057 0.411-0.056 0.899s0.057 0.899 0.056 0.9c0.04 0.293 0.315 0.532 0.61 0.532h1.525c0.295 0 0.601 0.188 0.681 0.417 0.079 0.23 0.188 0.967-0.02 1.176l-1.078 1.077C1.667 12.311 1.651 12.667 1.84 12.893l1.267 1.268c0.227 0.189 0.583 0.173 0.792-0.036l1.077-1.077c0.209-0.208 0.556-0.292 0.772-0.187s0.821 0.553 0.822 0.848v1.524c0 0.295 0.239 0.569 0.532 0.61 0 0 0.411 0.057 0.899 0.057s0.899-0.056 0.899-0.057c0.293-0.04 0.531-0.315 0.532-0.609v-1.524c0-0.295 0.188-0.602 0.418-0.681 0.23-0.079 0.967-0.188 1.176 0.021l1.077 1.077c0.209 0.209 0.565 0.225 0.792 0.036l1.268-1.267c0.189-0.227 0.173-0.583-0.036-0.792l-1.078-1.077c-0.209-0.209-0.293-0.557-0.186-0.773 0.106-0.216 0.552-0.822 0.847-0.822h1.525zM8 10.892c-1.597 0-2.891-1.294-2.891-2.892 0-1.596 1.295-2.891 2.891-2.891S10.892 6.404 10.892 8 9.597 10.892 8 10.892z"></path></g><g id="SvgjsG1948"><path d="M5.731 2.199a2.199 2.199 0 1 0 4.398 0 2.199 2.199 0 1 0-4.398 0"></path><path d="M5.184 5.068C3.628 5.068 2.24 6.329 2.24 7.885v6.819c0 0.532 0.419 0.964 0.95 0.964a0.963 0.963 0 0 0 0.962-0.964v-6.148h0.797V16H10.944V8.556h0.806v6.148c0 0.532 0.431 0.964 0.963 0.964s0.95-0.432 0.95-0.964V7.885c0-1.556-1.275-2.817-2.831-2.817H5.185z"></path></g><g id="SvgjsG1949"><path d="M13.759 16H2.203V0H7.461v6.173h6.298z"></path><path d="M8.597 0v5.162h5.162z"></path></g><g id="SvgjsG1950"><use xlink:href="#SvgjsG1947" transform="translate(0, 0)" fill="rgba(234, 226, 98, 0.79)"></use><use xlink:href="#SvgjsG1948" transform="translate(0, 53)" fill="rgba(234, 226, 98, 0.79)"></use><use xlink:href="#SvgjsG1949" transform="translate(0, 106)" fill="rgba(234, 226, 98, 0.79)"></use><use xlink:href="#SvgjsG1947" transform="translate(0, 159)" fill="rgba(234, 226, 98, 0.79)"></use><use xlink:href="#SvgjsG1948" transform="translate(0, 212)" fill="rgba(234, 226, 98, 0.79)"></use><use xlink:href="#SvgjsG1949" transform="translate(0, 265)" fill="rgba(234, 226, 98, 0.79)"></use><use xlink:href="#SvgjsG1947" transform="translate(0, 318)" fill="rgba(234, 226, 98, 0.79)"></use><use xlink:href="#SvgjsG1948" transform="translate(0, 371)" fill="rgba(234, 226, 98, 0.79)"></use><use xlink:href="#SvgjsG1949" transform="translate(0, 424)" fill="rgba(234, 226, 98, 0.79)"></use><use xlink:href="#SvgjsG1947" transform="translate(0, 477)" fill="rgba(234, 226, 98, 0.79)"></use><use xlink:href="#SvgjsG1948" transform="translate(53, 0)" fill="rgba(234, 226, 98, 0.79)"></use><use xlink:href="#SvgjsG1949" transform="translate(53, 53)" fill="rgba(234, 226, 98, 0.79)"></use><use xlink:href="#SvgjsG1947" transform="translate(53, 106)" fill="rgba(234, 226, 98, 0.79)"></use><use xlink:href="#SvgjsG1948" transform="translate(53, 159)" fill="rgba(234, 226, 98, 0.79)"></use><use xlink:href="#SvgjsG1949" transform="translate(53, 212)" fill="rgba(234, 226, 98, 0.79)"></use><use xlink:href="#SvgjsG1947" transform="translate(53, 265)" fill="rgba(234, 226, 98, 0.79)"></use><use xlink:href="#SvgjsG1948" transform="translate(53, 318)" fill="rgba(234, 226, 98, 0.79)"></use><use xlink:href="#SvgjsG1949" transform="translate(53, 371)" fill="rgba(234, 226, 98, 0.79)"></use><use xlink:href="#SvgjsG1947" transform="translate(53, 424)" fill="rgba(234, 226, 98, 0.79)"></use><use xlink:href="#SvgjsG1948" transform="translate(53, 477)" fill="rgba(234, 226, 98, 0.79)"></use><use xlink:href="#SvgjsG1949" transform="translate(106, 0)" fill="rgba(234, 226, 98, 0.79)"></use><use xlink:href="#SvgjsG1947" transform="translate(106, 53)" fill="rgba(234, 226, 98, 0.79)"></use><use xlink:href="#SvgjsG1948" transform="translate(106, 106)" fill="rgba(234, 226, 98, 0.79)"></use><use xlink:href="#SvgjsG1949" transform="translate(106, 159)" fill="rgba(234, 226, 98, 0.79)"></use><use xlink:href="#SvgjsG1947" transform="translate(106, 212)" fill="rgba(234, 226, 98, 0.79)"></use><use xlink:href="#SvgjsG1948" transform="translate(106, 265)" fill="rgba(234, 226, 98, 0.79)"></use><use xlink:href="#SvgjsG1949" transform="translate(106, 318)" fill="rgba(234, 226, 98, 0.79)"></use><use xlink:href="#SvgjsG1947" transform="translate(106, 371)" fill="rgba(234, 226, 98, 0.79)"></use><use xlink:href="#SvgjsG1948" transform="translate(106, 424)" fill="rgba(234, 226, 98, 0.79)"></use><use xlink:href="#SvgjsG1949" transform="translate(106, 477)" fill="rgba(234, 226, 98, 0.79)"></use><use xlink:href="#SvgjsG1947" transform="translate(159, 0)" fill="rgba(234, 226, 98, 0.79)"></use><use xlink:href="#SvgjsG1948" transform="translate(159, 53)" fill="rgba(234, 226, 98, 0.79)"></use><use xlink:href="#SvgjsG1949" transform="translate(159, 106)" fill="rgba(234, 226, 98, 0.79)"></use><use xlink:href="#SvgjsG1947" transform="translate(159, 159)" fill="rgba(234, 226, 98, 0.79)"></use><use xlink:href="#SvgjsG1948" transform="translate(159, 212)" fill="rgba(234, 226, 98, 0.79)"></use><use xlink:href="#SvgjsG1949" transform="translate(159, 265)" fill="rgba(234, 226, 98, 0.79)"></use><use xlink:href="#SvgjsG1947" transform="translate(159, 318)" fill="rgba(234, 226, 98, 0.79)"></use><use xlink:href="#SvgjsG1948" transform="translate(159, 371)" fill="rgba(234, 226, 98, 0.79)"></use><use xlink:href="#SvgjsG1949" transform="translate(159, 424)" fill="rgba(234, 226, 98, 0.79)"></use><use xlink:href="#SvgjsG1947" transform="translate(159, 477)" fill="rgba(234, 226, 98, 0.79)"></use><use xlink:href="#SvgjsG1948" transform="translate(212, 0)" fill="rgba(234, 226, 98, 0.79)"></use><use xlink:href="#SvgjsG1949" transform="translate(212, 53)" fill="rgba(234, 226, 98, 0.79)"></use><use xlink:href="#SvgjsG1947" transform="translate(212, 106)" fill="rgba(234, 226, 98, 0.79)"></use><use xlink:href="#SvgjsG1948" transform="translate(212, 159)" fill="rgba(234, 226, 98, 0.79)"></use><use xlink:href="#SvgjsG1949" transform="translate(212, 212)" fill="rgba(234, 226, 98, 0.79)"></use><use xlink:href="#SvgjsG1947" transform="translate(212, 265)" fill="rgba(234, 226, 98, 0.79)"></use><use xlink:href="#SvgjsG1948" transform="translate(212, 318)" fill="rgba(234, 226, 98, 0.79)"></use><use xlink:href="#SvgjsG1949" transform="translate(212, 371)" fill="rgba(234, 226, 98, 0.79)"></use><use xlink:href="#SvgjsG1947" transform="translate(212, 424)" fill="rgba(234, 226, 98, 0.79)"></use><use xlink:href="#SvgjsG1948" transform="translate(212, 477)" fill="rgba(234, 226, 98, 0.79)"></use><use xlink:href="#SvgjsG1949" transform="translate(265, 0)" fill="rgba(234, 226, 98, 0.79)"></use><use xlink:href="#SvgjsG1947" transform="translate(265, 53)" fill="rgba(234, 226, 98, 0.79)"></use><use xlink:href="#SvgjsG1948" transform="translate(265, 106)" fill="rgba(234, 226, 98, 0.79)"></use><use xlink:href="#SvgjsG1949" transform="translate(265, 159)" fill="rgba(234, 226, 98, 0.79)"></use><use xlink:href="#SvgjsG1947" transform="translate(265, 212)" fill="rgba(234, 226, 98, 0.79)"></use><use xlink:href="#SvgjsG1948" transform="translate(265, 265)" fill="rgba(234, 226, 98, 0.79)"></use><use xlink:href="#SvgjsG1949" transform="translate(265, 318)" fill="rgba(234, 226, 98, 0.79)"></use><use xlink:href="#SvgjsG1947" transform="translate(265, 371)" fill="rgba(234, 226, 98, 0.79)"></use><use xlink:href="#SvgjsG1948" transform="translate(265, 424)" fill="rgba(234, 226, 98, 0.79)"></use><use xlink:href="#SvgjsG1949" transform="translate(265, 477)" fill="rgba(234, 226, 98, 0.79)"></use><use xlink:href="#SvgjsG1947" transform="translate(318, 0)" fill="rgba(234, 226, 98, 0.79)"></use><use xlink:href="#SvgjsG1948" transform="translate(318, 53)" fill="rgba(234, 226, 98, 0.79)"></use><use xlink:href="#SvgjsG1949" transform="translate(318, 106)" fill="rgba(234, 226, 98, 0.79)"></use><use xlink:href="#SvgjsG1947" transform="translate(318, 159)" fill="rgba(234, 226, 98, 0.79)"></use><use xlink:href="#SvgjsG1948" transform="translate(318, 212)" fill="rgba(234, 226, 98, 0.79)"></use><use xlink:href="#SvgjsG1949" transform="translate(318, 265)" fill="rgba(234, 226, 98, 0.79)"></use><use xlink:href="#SvgjsG1947" transform="translate(318, 318)" fill="rgba(234, 226, 98, 0.79)"></use><use xlink:href="#SvgjsG1948" transform="translate(318, 371)" fill="rgba(234, 226, 98, 0.79)"></use><use xlink:href="#SvgjsG1949" transform="translate(318, 424)" fill="rgba(234, 226, 98, 0.79)"></use><use xlink:href="#SvgjsG1947" transform="translate(318, 477)" fill="rgba(234, 226, 98, 0.79)"></use><use xlink:href="#SvgjsG1948" transform="translate(371, 0)" fill="rgba(234, 226, 98, 0.79)"></use><use xlink:href="#SvgjsG1949" transform="translate(371, 53)" fill="rgba(234, 226, 98, 0.79)"></use><use xlink:href="#SvgjsG1947" transform="translate(371, 106)" fill="rgba(234, 226, 98, 0.79)"></use><use xlink:href="#SvgjsG1948" transform="translate(371, 159)" fill="rgba(234, 226, 98, 0.79)"></use><use xlink:href="#SvgjsG1949" transform="translate(371, 212)" fill="rgba(234, 226, 98, 0.79)"></use><use xlink:href="#SvgjsG1947" transform="translate(371, 265)" fill="rgba(234, 226, 98, 0.79)"></use><use xlink:href="#SvgjsG1948" transform="translate(371, 318)" fill="rgba(234, 226, 98, 0.79)"></use><use xlink:href="#SvgjsG1949" transform="translate(371, 371)" fill="rgba(234, 226, 98, 0.79)"></use><use xlink:href="#SvgjsG1947" transform="translate(371, 424)" fill="rgba(234, 226, 98, 0.79)"></use><use xlink:href="#SvgjsG1948" transform="translate(371, 477)" fill="rgba(234, 226, 98, 0.79)"></use><use xlink:href="#SvgjsG1949" transform="translate(424, 0)" fill="rgba(234, 226, 98, 0.79)"></use><use xlink:href="#SvgjsG1947" transform="translate(424, 53)" fill="rgba(234, 226, 98, 0.79)"></use><use xlink:href="#SvgjsG1948" transform="translate(424, 106)" fill="rgba(234, 226, 98, 0.79)"></use><use xlink:href="#SvgjsG1949" transform="translate(424, 159)" fill="rgba(234, 226, 98, 0.79)"></use><use xlink:href="#SvgjsG1947" transform="translate(424, 212)" fill="rgba(234, 226, 98, 0.79)"></use><use xlink:href="#SvgjsG1948" transform="translate(424, 265)" fill="rgba(234, 226, 98, 0.79)"></use><use xlink:href="#SvgjsG1949" transform="translate(424, 318)" fill="rgba(234, 226, 98, 0.79)"></use><use xlink:href="#SvgjsG1947" transform="translate(424, 371)" fill="rgba(234, 226, 98, 0.79)"></use><use xlink:href="#SvgjsG1948" transform="translate(424, 424)" fill="rgba(234, 226, 98, 0.79)"></use><use xlink:href="#SvgjsG1949" transform="translate(424, 477)" fill="rgba(234, 226, 98, 0.79)"></use><use xlink:href="#SvgjsG1947" transform="translate(477, 0)" fill="rgba(234, 226, 98, 0.79)"></use><use xlink:href="#SvgjsG1948" transform="translate(477, 53)" fill="rgba(234, 226, 98, 0.79)"></use><use xlink:href="#SvgjsG1949" transform="translate(477, 106)" fill="rgba(234, 226, 98, 0.79)"></use><use xlink:href="#SvgjsG1947" transform="translate(477, 159)" fill="rgba(234, 226, 98, 0.79)"></use><use xlink:href="#SvgjsG1948" transform="translate(477, 212)" fill="rgba(234, 226, 98, 0.79)"></use><use xlink:href="#SvgjsG1949" transform="translate(477, 265)" fill="rgba(234, 226, 98, 0.79)"></use><use xlink:href="#SvgjsG1947" transform="translate(477, 318)" fill="rgba(234, 226, 98, 0.79)"></use><use xlink:href="#SvgjsG1948" transform="translate(477, 371)" fill="rgba(234, 226, 98, 0.79)"></use><use xlink:href="#SvgjsG1949" transform="translate(477, 424)" fill="rgba(234, 226, 98, 0.79)"></use><use xlink:href="#SvgjsG1947" transform="translate(477, 477)" fill="rgba(234, 226, 98, 0.79)"></use></g></defs></svg>